<svg width="20" height="15" viewBox="0 0 20 15" fill="none" xmlns="http://www.w3.org/2000/svg">
<path fill-rule="evenodd" clip-rule="evenodd" d="M0.614027 0.926C0.727567 0.651878 0.919852 0.417585 1.16656 0.252756C1.41327 0.0879266 1.70332 -3.36725e-05 2.00003 9.66967e-09H12C13.9892 9.66967e-09 15.8968 0.790176 17.3033 2.1967C18.7099 3.60322 19.5 5.51088 19.5 7.5C19.5 9.48912 18.7099 11.3968 17.3033 12.8033C15.8968 14.2098 13.9892 15 12 15H3.00003C2.6022 15 2.22067 14.842 1.93937 14.5607C1.65806 14.2794 1.50003 13.8978 1.50003 13.5C1.50003 13.1022 1.65806 12.7206 1.93937 12.4393C2.22067 12.158 2.6022 12 3.00003 12H12C13.1935 12 14.3381 11.5259 15.182 10.682C16.0259 9.83807 16.5 8.69347 16.5 7.5C16.5 6.30653 16.0259 5.16193 15.182 4.31802C14.3381 3.47411 13.1935 3 12 3H5.62103L6.56103 3.94C6.83413 4.22303 6.98515 4.60201 6.98155 4.9953C6.97795 5.3886 6.82001 5.76474 6.54177 6.04273C6.26353 6.32071 5.88723 6.47828 5.49393 6.48151C5.10063 6.48475 4.7218 6.33337 4.43903 6.06L0.939027 2.56C0.729412 2.35026 0.586665 2.0831 0.528819 1.79227C0.470973 1.50144 0.500625 1.19999 0.614027 0.926Z" fill="#0177FD"/>
</svg>
