<svg width="19" height="19" viewBox="0 0 19 19" fill="none" xmlns="http://www.w3.org/2000/svg">
<path d="M10.0859 9.2002V3.9502H3.71094V13.7939L4.57344 12.9502H15.7109V3.9502H13.8359V9.2002L11.9609 8.0752L10.0859 9.2002ZM2.21094 17.4502V3.9502C2.21094 3.5377 2.35794 3.1847 2.65194 2.8912C2.94594 2.5977 3.29894 2.4507 3.71094 2.4502H15.7109C16.1234 2.4502 16.4767 2.5972 16.7707 2.8912C17.0647 3.1852 17.2114 3.5382 17.2109 3.9502V12.9502C17.2109 13.3627 17.0642 13.7159 16.7707 14.0099C16.4772 14.3039 16.1239 14.4507 15.7109 14.4502H5.21094L2.21094 17.4502Z" fill="#A4B4CB"/>
</svg>
