<svg width="18" height="18" viewBox="0 0 18 18" fill="none" xmlns="http://www.w3.org/2000/svg">
<path d="M10.6875 5.625H14.625V6.75H10.6875V5.625ZM10.6875 8.4375H14.625V9.5625H10.6875V8.4375ZM10.6875 11.25H14.625V12.375H10.6875V11.25ZM3.375 5.625H7.3125V6.75H3.375V5.625ZM3.375 8.4375H7.3125V9.5625H3.375V8.4375ZM3.375 11.25H7.3125V12.375H3.375V11.25Z" fill="#A4B4CB"/>
<path d="M15.75 2.8125H2.25C1.95163 2.8125 1.66548 2.93103 1.4545 3.142C1.24353 3.35298 1.125 3.63913 1.125 3.9375V14.0625C1.125 14.3609 1.24353 14.647 1.4545 14.858C1.66548 15.069 1.95163 15.1875 2.25 15.1875H15.75C16.0484 15.1875 16.3345 15.069 16.5455 14.858C16.7565 14.647 16.875 14.3609 16.875 14.0625V3.9375C16.875 3.63913 16.7565 3.35298 16.5455 3.142C16.3345 2.93103 16.0484 2.8125 15.75 2.8125ZM2.25 3.9375H8.4375V14.0625H2.25V3.9375ZM9.5625 14.0625V3.9375H15.75V14.0625H9.5625Z" fill="#A4B4CB"/>
</svg>
