<svg width="18" height="18" viewBox="0 0 18 18" fill="none" xmlns="http://www.w3.org/2000/svg">
<path d="M1.5 3.75C1.5 3.55109 1.57902 3.36032 1.71967 3.21967C1.86032 3.07902 2.05109 3 2.25 3H15.75C15.9489 3 16.1397 3.07902 16.2803 3.21967C16.421 3.36032 16.5 3.55109 16.5 3.75V14.25C16.5 14.4489 16.421 14.6397 16.2803 14.7803C16.1397 14.921 15.9489 15 15.75 15H2.25C2.05109 15 1.86032 14.921 1.71967 14.7803C1.57902 14.6397 1.5 14.4489 1.5 14.25V3.75Z" stroke="#A4B4CB" stroke-width="2" stroke-linejoin="round"/>
<path d="M1.5 6H16.5" stroke="#A4B4CB" stroke-width="2" stroke-linecap="square" stroke-linejoin="round"/>
<path d="M10.125 12H13.5M16.5 3.75V9.75M1.5 3.75V9.75" stroke="#A4B4CB" stroke-width="2" stroke-linecap="round" stroke-linejoin="round"/>
</svg>
