<svg width="19" height="19" viewBox="0 0 19 19" fill="none" xmlns="http://www.w3.org/2000/svg">
<path d="M16.3016 7.77118L14.9195 7.3105L15.5703 6.00887C15.6363 5.87263 15.6584 5.71927 15.6335 5.56996C15.6086 5.42064 15.538 5.28273 15.4314 5.17525L13.8738 3.61768C13.7658 3.50952 13.6265 3.43795 13.4757 3.41303C13.3249 3.3881 13.17 3.41109 13.0329 3.47875L11.7313 4.12956L11.2706 2.7475C11.2219 2.60343 11.1296 2.47812 11.0064 2.389C10.8832 2.29988 10.7353 2.25138 10.5832 2.25025H8.38946C8.23615 2.24985 8.0866 2.29765 7.96195 2.38687C7.83729 2.4761 7.74382 2.60226 7.69477 2.7475L7.23408 4.12956L5.93246 3.47875C5.79621 3.41277 5.64285 3.39071 5.49354 3.41559C5.34422 3.44048 5.20631 3.51109 5.09883 3.61768L3.54127 5.17525C3.43311 5.2833 3.36153 5.42254 3.33661 5.57338C3.31169 5.72422 3.33467 5.87908 3.40233 6.01618L4.05314 7.31781L2.67108 7.7785C2.52702 7.82715 2.40171 7.9195 2.31258 8.0427C2.22346 8.1659 2.17496 8.31382 2.17383 8.46587V10.6596C2.17343 10.8129 2.22123 10.9625 2.31046 11.0871C2.39969 11.2118 2.52584 11.3053 2.67108 11.3543L4.05314 11.815L3.40233 13.1166C3.33636 13.2529 3.31429 13.4062 3.33918 13.5555C3.36406 13.7049 3.43467 13.8428 3.54127 13.9502L5.09883 15.5078C5.20688 15.616 5.34612 15.6875 5.49696 15.7125C5.64781 15.7374 5.80267 15.7144 5.93977 15.6467L7.24139 14.9959L7.70208 16.378C7.75114 16.5232 7.8446 16.6494 7.96926 16.7386C8.09392 16.8278 8.24347 16.8756 8.39677 16.8752H10.5905C10.7438 16.8756 10.8934 16.8278 11.018 16.7386C11.1427 16.6494 11.2361 16.5232 11.2852 16.378L11.7459 14.9959L13.0475 15.6467C13.1829 15.7111 13.3348 15.7322 13.4825 15.7074C13.6303 15.6825 13.7669 15.6129 13.8738 15.5078L15.4314 13.9502C15.5396 13.8422 15.6111 13.703 15.6361 13.5521C15.661 13.4013 15.638 13.2464 15.5703 13.1093L14.9195 11.8077L16.3016 11.347C16.4456 11.2983 16.571 11.206 16.6601 11.0828C16.7492 10.9596 16.7977 10.8117 16.7988 10.6596V8.46587C16.7992 8.31257 16.7514 8.16302 16.6622 8.03836C16.573 7.9137 16.4468 7.82024 16.3016 7.77118ZM15.3363 10.1331L14.4588 10.4256C14.257 10.4911 14.0719 10.5996 13.9163 10.7438C13.7607 10.8879 13.6382 11.0642 13.5575 11.2604C13.4768 11.4566 13.4398 11.668 13.4489 11.8799C13.4581 12.0919 13.5133 12.2993 13.6106 12.4877L14.0274 13.3214L13.223 14.1257L12.4113 13.687C12.2238 13.5936 12.0184 13.5415 11.809 13.5344C11.5996 13.5272 11.3911 13.5652 11.1977 13.6456C11.0042 13.726 10.8303 13.8471 10.6877 14.0006C10.5451 14.1541 10.4372 14.3364 10.3711 14.5352L10.0786 15.4127H8.91596L8.62346 14.5352C8.558 14.3335 8.44944 14.1483 8.30529 13.9927C8.16114 13.8371 7.98486 13.7147 7.78868 13.634C7.59249 13.5533 7.3811 13.5162 7.16916 13.5254C6.95723 13.5345 6.74982 13.5897 6.56133 13.687L5.72771 14.1038L4.92333 13.2994L5.36208 12.4877C5.45941 12.2993 5.51456 12.0919 5.52372 11.8799C5.53288 11.668 5.49582 11.4566 5.41512 11.2604C5.33442 11.0642 5.21201 10.8879 5.05638 10.7438C4.90074 10.5996 4.71561 10.4911 4.51383 10.4256L3.63633 10.1331V8.99237L4.51383 8.69987C4.71561 8.63442 4.90074 8.52585 5.05638 8.3817C5.21201 8.23756 5.33442 8.06128 5.41512 7.86509C5.49582 7.66891 5.53288 7.45752 5.52372 7.24558C5.51456 7.03364 5.45941 6.82624 5.36208 6.63775L4.94527 5.82606L5.74964 5.02168L6.56133 5.4385C6.74982 5.53582 6.95723 5.59098 7.16916 5.60014C7.3811 5.6093 7.59249 5.57224 7.78868 5.49154C7.98486 5.41084 8.16114 5.28843 8.30529 5.13279C8.44944 4.97716 8.558 4.79203 8.62346 4.59025L8.91596 3.71275H10.0567L10.3492 4.59025C10.4147 4.79203 10.5232 4.97716 10.6674 5.13279C10.8115 5.28843 10.9878 5.41084 11.184 5.49154C11.3802 5.57224 11.5916 5.6093 11.8035 5.60014C12.0154 5.59098 12.2228 5.53582 12.4113 5.4385L13.245 5.02168L14.0493 5.82606L13.6106 6.63775C13.5172 6.82527 13.4651 7.03068 13.458 7.24007C13.4508 7.44946 13.4888 7.65793 13.5692 7.85139C13.6496 8.04484 13.7707 8.21876 13.9242 8.36136C14.0777 8.50396 14.26 8.61192 14.4588 8.67793L15.3363 8.97043V10.1331ZM9.48633 6.63775C8.90782 6.63775 8.3423 6.8093 7.86129 7.1307C7.38027 7.4521 7.00537 7.90892 6.78398 8.4434C6.5626 8.97787 6.50467 9.56599 6.61753 10.1334C6.7304 10.7008 7.00898 11.222 7.41804 11.631C7.82711 12.0401 8.3483 12.3187 8.91569 12.4315C9.48309 12.5444 10.0712 12.4865 10.6057 12.2651C11.1402 12.0437 11.597 11.6688 11.9184 11.1878C12.2398 10.7068 12.4113 10.1413 12.4113 9.56275C12.4113 8.78699 12.1032 8.043 11.5546 7.49446C11.0061 6.94592 10.2621 6.63775 9.48633 6.63775ZM9.48633 11.0252C9.19708 11.0252 8.91432 10.9395 8.67381 10.7788C8.4333 10.6181 8.24585 10.3897 8.13516 10.1224C8.02446 9.85518 7.9955 9.56112 8.05193 9.27743C8.10836 8.99373 8.24765 8.73314 8.45219 8.5286C8.65672 8.32407 8.91731 8.18478 9.20101 8.12835C9.48471 8.07192 9.77877 8.10088 10.046 8.21157C10.3132 8.32227 10.5417 8.50972 10.7024 8.75023C10.8631 8.99073 10.9488 9.27349 10.9488 9.56275C10.9488 9.95063 10.7947 10.3226 10.5205 10.5969C10.2462 10.8712 9.87421 11.0252 9.48633 11.0252Z" fill="#A4B4CB"/>
</svg>
