<svg width="18" height="18" viewBox="0 0 18 18" fill="none" xmlns="http://www.w3.org/2000/svg">
<path d="M14.6252 5.8674L10.2377 2.02103C9.83546 1.66129 9.31478 1.4624 8.77517 1.4624C8.23555 1.4624 7.71487 1.66129 7.31267 2.02103L2.92517 5.8674C2.6929 6.07513 2.50755 6.32996 2.38146 6.61492C2.25537 6.89988 2.19144 7.20843 2.19392 7.52003V13.9112C2.19392 14.493 2.42504 15.051 2.83645 15.4624C3.24786 15.8738 3.80585 16.1049 4.38767 16.1049H13.1627C13.7445 16.1049 14.3025 15.8738 14.7139 15.4624C15.1253 15.051 15.3564 14.493 15.3564 13.9112V7.51271C15.3579 7.20234 15.2934 6.8952 15.1674 6.61158C15.0413 6.32796 14.8565 6.07431 14.6252 5.8674ZM10.2377 14.6424H7.31267V10.9862C7.31267 10.7922 7.38971 10.6062 7.52685 10.4691C7.66398 10.3319 7.84998 10.2549 8.04392 10.2549H9.50642C9.70036 10.2549 9.88635 10.3319 10.0235 10.4691C10.1606 10.6062 10.2377 10.7922 10.2377 10.9862V14.6424ZM13.8939 13.9112C13.8939 14.1051 13.8169 14.2911 13.6797 14.4282C13.5426 14.5654 13.3566 14.6424 13.1627 14.6424H11.7002V10.9862C11.7002 10.4043 11.469 9.84634 11.0576 9.43494C10.6462 9.02353 10.0882 8.7924 9.50642 8.7924H8.04392C7.4621 8.7924 6.90411 9.02353 6.4927 9.43494C6.08129 9.84634 5.85017 10.4043 5.85017 10.9862V14.6424H4.38767C4.19373 14.6424 4.00773 14.5654 3.8706 14.4282C3.73346 14.2911 3.65642 14.1051 3.65642 13.9112V7.51271C3.65655 7.40889 3.67879 7.30628 3.72166 7.21172C3.76453 7.11715 3.82704 7.0328 3.90504 6.96428L8.29254 3.12521C8.42599 3.00798 8.59754 2.94333 8.77517 2.94333C8.95279 2.94333 9.12435 3.00798 9.25779 3.12521L13.6453 6.96428C13.7233 7.0328 13.7858 7.11715 13.8287 7.21172C13.8715 7.30628 13.8938 7.40889 13.8939 7.51271V13.9112Z" fill="#A4B4CB"/>
</svg>
