<svg width="115" height="91" viewBox="0 0 115 91" fill="none" xmlns="http://www.w3.org/2000/svg">
<path d="M69.7812 20.9375H98.4375V29.125H69.7812V20.9375ZM69.7812 41.4062H98.4375V49.5938H69.7812V41.4062ZM69.7812 61.875H98.4375V70.0625H69.7812V61.875ZM16.5625 20.9375H45.2188V29.125H16.5625V20.9375ZM16.5625 41.4062H45.2188V49.5938H16.5625V41.4062ZM16.5625 61.875H45.2188V70.0625H16.5625V61.875Z" fill="#FFB700"/>
<path d="M106.625 0.46875H8.375C6.20354 0.46875 4.12102 1.33136 2.58556 2.86681C1.05011 4.40227 0.1875 6.48479 0.1875 8.65625V82.3438C0.1875 84.5152 1.05011 86.5977 2.58556 88.1332C4.12102 89.6686 6.20354 90.5312 8.375 90.5312H106.625C108.796 90.5312 110.879 89.6686 112.414 88.1332C113.95 86.5977 114.812 84.5152 114.812 82.3438V8.65625C114.812 6.48479 113.95 4.40227 112.414 2.86681C110.879 1.33136 108.796 0.46875 106.625 0.46875ZM8.375 8.65625H53.4062V82.3438H8.375V8.65625ZM61.5938 82.3438V8.65625H106.625V82.3438H61.5938Z" fill="#FFB700"/>
</svg>
