<svg width="82" height="91" viewBox="0 0 82 91" fill="none" xmlns="http://www.w3.org/2000/svg">
<path d="M77.1295 27.3761L49.9075 3.47174C47.412 1.23602 44.1815 0 40.8335 0C37.4855 0 34.2549 1.23602 31.7595 3.47174L4.53743 27.3761C3.09634 28.6671 1.94635 30.2508 1.16404 32.0218C0.381737 33.7927 -0.0149384 35.7103 0.000430081 37.6468V77.3663C0.000430081 80.9822 1.43444 84.45 3.987 87.0068C6.53956 89.5636 10.0016 91 13.6114 91H68.0555C71.6654 91 75.1274 89.5636 77.6799 87.0068C80.2325 84.45 81.6665 80.9822 81.6665 77.3663V37.6014C81.6754 35.6725 81.2757 33.7637 80.4936 32.001C79.7115 30.2384 78.5649 28.662 77.1295 27.3761V27.3761ZM49.9075 81.9109H31.7595V59.1881C31.7595 57.9828 32.2375 56.8268 33.0883 55.9746C33.9392 55.1223 35.0932 54.6435 36.2965 54.6435H45.3705C46.5738 54.6435 47.7278 55.1223 48.5786 55.9746C49.4295 56.8268 49.9075 57.9828 49.9075 59.1881V81.9109ZM72.5925 77.3663C72.5925 78.5716 72.1145 79.7275 71.2637 80.5798C70.4128 81.4321 69.2588 81.9109 68.0555 81.9109H58.9815V59.1881C58.9815 55.5722 57.5475 52.1044 54.9949 49.5476C52.4424 46.9908 48.9803 45.5544 45.3705 45.5544H36.2965C32.6866 45.5544 29.2246 46.9908 26.672 49.5476C24.1195 52.1044 22.6855 55.5722 22.6855 59.1881V81.9109H13.6114C12.4082 81.9109 11.2542 81.4321 10.4033 80.5798C9.55245 79.7275 9.07444 78.5716 9.07444 77.3663V37.6014C9.07526 36.9561 9.21324 36.3184 9.47922 35.7308C9.7452 35.1431 10.1331 34.6188 10.617 34.193L37.8391 10.334C38.667 9.60544 39.7314 9.20364 40.8335 9.20364C41.9355 9.20364 42.9999 9.60544 43.8279 10.334L71.0499 34.193C71.5339 34.6188 71.9217 35.1431 72.1877 35.7308C72.4537 36.3184 72.5917 36.9561 72.5925 37.6014V77.3663Z" fill="#FFB700"/>
</svg>
